<?xml version="1.0" encoding="UTF-8" standalone="no"?>
<svg
   xmlns:dc="http://purl.org/dc/elements/1.1/"
   xmlns:cc="http://creativecommons.org/ns#"
   xmlns:rdf="http://www.w3.org/1999/02/22-rdf-syntax-ns#"
   xmlns:svg="http://www.w3.org/2000/svg"
   xmlns="http://www.w3.org/2000/svg"
   id="svg3402"
   viewBox="0 0 32 32"
   height="32"
   width="32"
   version="1.1">
  <metadata
     id="metadata3412">
    <rdf:RDF>
      <cc:Work
         rdf:about="">
        <dc:format>image/svg+xml</dc:format>
        <dc:type
           rdf:resource="http://purl.org/dc/dcmitype/StillImage" />
        <dc:title>lightning</dc:title>
      </cc:Work>
    </rdf:RDF>
  </metadata>
  <defs
     id="defs3410" />
  <title
     id="title3404">lightning</title>
  <path
     style="fill:#4d4d4d"
     id="path3406"
     d="m 31.246212,8.5557769 c 0,-2.9815435 -2.399883,-5.4059887 -5.349818,-5.4059887 -0.143992,0 -0.286066,0.00485 -0.429099,0.0165 -1.387132,-1.7489395 -3.478869,-2.78937398 -5.740518,-2.78937398 -2.260689,0 -4.353386,1.04043448 -5.740518,2.78937368 -0.142073,-0.011647 -0.286066,-0.0165 -0.431019,-0.0165 -2.947055,0 -5.3469373,2.4254158 -5.3469373,5.4059887 0,0.3125186 0.041278,0.614361 0.090236,0.9123213 -0.032638,0.042705 -0.071037,0.082497 -0.102715,0.126172 -0.3139046,-0.045616 -0.6287691,-0.067939 -0.9474735,-0.067939 -3.7044581,0 -6.71967018,3.0485116 -6.71967018,6.7938816 0,3.74537 3.01521208,6.793881 6.71967018,6.793881 0.8217197,0 1.6252003,-0.151406 2.3826031,-0.444513 1.1010657,0.970554 2.4066027,1.634413 3.7918137,2.014871 l -1.374653,0.92785 1.919906,1.941109 -1.919906,3.882218 5.759718,-3.882218 -1.919906,-1.941109 0.288946,-0.581363 c 2.205012,-0.06793 4.304429,-0.89388 5.968027,-2.360388 0.757403,0.293108 1.560884,0.444514 2.382603,0.444514 3.704458,0 6.71967,-3.048511 6.71967,-6.793881 0,-1.55677 -0.542373,-2.977662 -1.41977,-4.124857 0.874517,-0.96279 1.41977,-2.233246 1.41977,-3.6395795 z" />
</svg>
