<svg aria-hidden="true" style="position: absolute; width: 0; height: 0; overflow: hidden;" version="1.1" xmlns="http://www.w3.org/2000/svg" xmlns:xlink="http://www.w3.org/1999/xlink">
<defs>
<symbol id="icon-sun" viewBox="0 0 32 32">
<title>sun</title>
<path d="M16 9c-3.859 0-7 3.141-7 7s3.141 7 7 7 7-3.141 7-7c0-3.859-3.141-7-7-7zM16 21c-2.762 0-5-2.238-5-5s2.238-5 5-5 5 2.238 5 5-2.238 5-5 5zM16 7c0.552 0 1-0.448 1-1v-2c0-0.552-0.448-1-1-1s-1 0.448-1 1v2c0 0.552 0.448 1 1 1zM16 25c-0.552 0-1 0.448-1 1v2c0 0.552 0.448 1 1 1s1-0.448 1-1v-2c0-0.552-0.448-1-1-1zM23.777 9.635l1.414-1.414c0.391-0.391 0.391-1.023 0-1.414s-1.023-0.391-1.414 0l-1.414 1.414c-0.391 0.391-0.391 1.023 0 1.414s1.023 0.391 1.414 0zM8.223 22.365l-1.414 1.414c-0.391 0.391-0.391 1.023 0 1.414s1.023 0.391 1.414 0l1.414-1.414c0.391-0.392 0.391-1.023 0-1.414s-1.023-0.392-1.414 0zM7 16c0-0.552-0.448-1-1-1h-2c-0.552 0-1 0.448-1 1s0.448 1 1 1h2c0.552 0 1-0.448 1-1zM28 15h-2c-0.552 0-1 0.448-1 1s0.448 1 1 1h2c0.552 0 1-0.448 1-1s-0.448-1-1-1zM8.221 9.635c0.391 0.391 1.024 0.391 1.414 0s0.391-1.023 0-1.414l-1.414-1.414c-0.391-0.391-1.023-0.391-1.414 0s-0.391 1.023 0 1.414l1.414 1.414zM23.779 22.363c-0.392-0.391-1.023-0.391-1.414 0s-0.392 1.023 0 1.414l1.414 1.414c0.391 0.391 1.023 0.391 1.414 0s0.391-1.023 0-1.414l-1.414-1.414z"></path>
</symbol>
<symbol id="icon-windy" viewBox="0 0 32 32">
<title>windy</title>
<path d="M26.065 4.425c-1.499-1.535-3.57-2.425-5.733-2.425-2.16 0-4.23 0.889-5.729 2.425-3.301 0.152-5.939 2.885-5.939 6.221 0 3.436 2.794 6.232 6.23 6.232 0.365 0 0.725-0.031 1.079-0.094 1.296 0.845 2.807 1.302 4.358 1.302 1.553 0 3.066-0.457 4.361-1.302 0.357 0.062 0.716 0.094 1.081 0.094 3.434 0 6.227-2.796 6.227-6.232-0-3.336-2.637-6.070-5.935-6.221zM9 16.043h-8c-0.552 0-1 0.447-1 1s0.448 1 1 1h8c0.552 0 1-0.447 1-1s-0.448-1-1-1zM1 14.043h4c0.552 0 1-0.447 1-1s-0.448-1-1-1h-4c-0.552 0-1 0.447-1 1s0.448 1 1 1zM3 10.043h4c0.552 0 1-0.447 1-1s-0.448-1-1-1h-4c-0.552 0-1 0.447-1 1s0.448 1 1 1zM14 24c0 1.105 0.895 2 2 2s2-0.895 2-2-2-4-2-4-2 2.895-2 4zM22 28c0 1.105 0.895 2 2 2s2-0.895 2-2-2-4-2-4-2 2.895-2 4z"></path>
</symbol>
<symbol id="icon-lightning" viewBox="0 0 32 32">
<title>lightning</title>
<path d="M32 8.427c0-3.072-2.5-5.57-5.573-5.57-0.15 0-0.298 0.005-0.447 0.017-1.445-1.802-3.624-2.874-5.98-2.874-2.355 0-4.535 1.072-5.98 2.874-0.148-0.012-0.298-0.017-0.449-0.017-3.070 0-5.57 2.499-5.57 5.57 0 0.322 0.043 0.633 0.094 0.94-0.034 0.044-0.074 0.085-0.107 0.13-0.327-0.047-0.655-0.070-0.987-0.070-3.859 0-7 3.141-7 7s3.141 7 7 7c0.856 0 1.693-0.156 2.482-0.458 1.147 1 2.507 1.684 3.95 2.076l-1.432 0.956 2 2-2 4 6-4-2-2 0.301-0.599c2.297-0.070 4.484-0.921 6.217-2.432 0.789 0.302 1.626 0.458 2.482 0.458 3.859 0 7-3.141 7-7 0-1.604-0.565-3.068-1.479-4.25 0.911-0.992 1.479-2.301 1.479-3.75z"></path>
</symbol>
<symbol id="icon-fire" viewBox="0 0 32 32">
<title>fire</title>
<path d="M10.031 32c-2.133-4.438-0.997-6.981 0.642-9.376 1.795-2.624 2.258-5.221 2.258-5.221s1.411 1.834 0.847 4.703c2.493-2.775 2.963-7.196 2.587-8.889 5.635 3.938 8.043 12.464 4.798 18.783 17.262-9.767 4.294-24.38 2.036-26.027 0.753 1.646 0.895 4.433-0.625 5.785-2.573-9.759-8.937-11.759-8.937-11.759 0.753 5.033-2.728 10.536-6.084 14.648-0.118-2.007-0.243-3.392-1.298-5.312-0.237 3.646-3.023 6.617-3.777 10.27-1.022 4.946 0.765 8.568 7.555 12.394z"></path>
</symbol>
</defs>
</svg>
