<?xml version="1.0" encoding="UTF-8" standalone="no"?>
<svg
   xmlns:dc="http://purl.org/dc/elements/1.1/"
   xmlns:cc="http://creativecommons.org/ns#"
   xmlns:rdf="http://www.w3.org/1999/02/22-rdf-syntax-ns#"
   xmlns:svg="http://www.w3.org/2000/svg"
   xmlns="http://www.w3.org/2000/svg"
   xmlns:sodipodi="http://sodipodi.sourceforge.net/DTD/sodipodi-0.dtd"
   xmlns:inkscape="http://www.inkscape.org/namespaces/inkscape"
   width="24"
   height="24"
   viewBox="0 0 24 24"
   id="svg3336"
   version="1.1"
   inkscape:version="0.91 r13725"
   sodipodi:docname="iconmonstr-firewall-1.svg">
  <metadata
     id="metadata3344">
    <rdf:RDF>
      <cc:Work
         rdf:about="">
        <dc:format>image/svg+xml</dc:format>
        <dc:type
           rdf:resource="http://purl.org/dc/dcmitype/StillImage" />
      </cc:Work>
    </rdf:RDF>
  </metadata>
  <defs
     id="defs3342" />
  <sodipodi:namedview
     pagecolor="#ffffff"
     bordercolor="#666666"
     borderopacity="1"
     objecttolerance="10"
     gridtolerance="10"
     guidetolerance="10"
     inkscape:pageopacity="0"
     inkscape:pageshadow="2"
     inkscape:window-width="1920"
     inkscape:window-height="1018"
     id="namedview3340"
     showgrid="false"
     inkscape:zoom="35.375"
     inkscape:cx="12"
     inkscape:cy="11.126939"
     inkscape:window-x="-8"
     inkscape:window-y="-8"
     inkscape:window-maximized="1"
     inkscape:current-layer="svg3336" />
  <path
     d="M 11.854,12.693 C 11.636,13.621 10.614,14.534 9.94,14.54 10.649,12.918 10.777,10.405 9.264,8.297 9.114,9.38 8.439,10.097 7.722,10.293 8.75,7.229 6,4.188 3,4 4.958,7.854 -1.368,10.359 2.38,14.893 1.792,14.867 0.4,14.403 0.136,12.793 -0.52,15.817 1.241,19.666 4.347,20 3.709,19.528 2.387,17.825 3.068,16.056 c 0.392,0.725 1.16,1.363 1.928,1.371 -2.812,-2.588 0.81,-5.148 -0.629,-7.276 3.263,0.608 3.15,3.701 2.529,4.745 0.507,10e-4 1.087,-0.637 1.333,-1.463 0.749,1.152 0.109,3.059 -0.458,3.911 0.297,0.102 1.419,-0.531 1.663,-1.193 0.215,1.806 -1.056,3.641 -1.885,3.849 1.91,0 5.049,-2.861 4.305,-7.307 z"
     id="path3338"
     inkscape:connector-curvature="0"
     sodipodi:nodetypes="ccccccccccccccccc"
     style="fill:#4d4d4d"
     inkscape:export-filename="C:\Users\u0079068\Documents\Research\ISIMIP2b_exposure\ncfiles\pictograms\pictogram_burntarea.png"
     inkscape:export-xdpi="1800"
     inkscape:export-ydpi="1800" />
</svg>
