<?xml version="1.0" encoding="UTF-8" standalone="no"?>
<svg
   xmlns:dc="http://purl.org/dc/elements/1.1/"
   xmlns:cc="http://creativecommons.org/ns#"
   xmlns:rdf="http://www.w3.org/1999/02/22-rdf-syntax-ns#"
   xmlns:svg="http://www.w3.org/2000/svg"
   xmlns="http://www.w3.org/2000/svg"
   xmlns:sodipodi="http://sodipodi.sourceforge.net/DTD/sodipodi-0.dtd"
   xmlns:inkscape="http://www.inkscape.org/namespaces/inkscape"
   width="24"
   height="24"
   viewBox="0 0 24 24"
   id="svg3442"
   version="1.1"
   inkscape:version="0.91 r13725"
   sodipodi:docname="iconmonstr-weather-85.svg">
  <metadata
     id="metadata3450">
    <rdf:RDF>
      <cc:Work
         rdf:about="">
        <dc:format>image/svg+xml</dc:format>
        <dc:type
           rdf:resource="http://purl.org/dc/dcmitype/StillImage" />
      </cc:Work>
    </rdf:RDF>
  </metadata>
  <defs
     id="defs3448" />
  <sodipodi:namedview
     pagecolor="#ffffff"
     bordercolor="#666666"
     borderopacity="1"
     objecttolerance="10"
     gridtolerance="10"
     guidetolerance="10"
     inkscape:pageopacity="0"
     inkscape:pageshadow="2"
     inkscape:window-width="1920"
     inkscape:window-height="1018"
     id="namedview3446"
     showgrid="false"
     inkscape:zoom="9.8333333"
     inkscape:cx="12"
     inkscape:cy="12"
     inkscape:window-x="-8"
     inkscape:window-y="-8"
     inkscape:window-maximized="1"
     inkscape:current-layer="svg3442" />
  <path
     d="M14.664 13.432c-.759.771-2.571.755-4.042-.036-1.475-.792-2.046-2.058-1.286-2.829.759-.771 2.568-.755 4.043.037 1.469.792 2.046 2.057 1.285 2.828zm4.43-5.636c1.156 0 3.323.558 4.906 2.204 0-3.938-5.069-9-11.993-9-5.678 0-10.007 4.022-10.007 8.858 0 2.617.911 4.664 2.906 6.346-1.156 0-3.323-.558-4.906-2.204 0 3.938 5.069 9 11.993 9 5.678 0 10.007-4.022 10.007-8.858 0-1.99-.755-4.533-2.906-6.346zm-7.101 13.204c-3.02 0-5.82-1.101-7.78-2.924 2.405.792 5.974 1.111 8.021-.458-4.267-.811-8.234-3.339-8.234-7.764 0-3.701 3.405-6.854 8.007-6.854 3.02 0 5.82 1.101 7.78 2.924-2.405-.792-5.974-1.111-8.021.458 4.257.809 8.234 3.456 8.234 7.764 0 3.701-3.405 6.854-8.007 6.854z"
     id="path3444"
     style="fill:#4d4d4d"
     inkscape:export-filename="C:\Users\u0079068\Documents\Research\ISIMIP2b_exposure\ncfiles\pictograms\pictogram_tropicalcyclonedarea2.png"
     inkscape:export-xdpi="1800"
     inkscape:export-ydpi="1800" />
</svg>
