<?xml version="1.0" encoding="UTF-8" standalone="no"?>
<svg
   xmlns:dc="http://purl.org/dc/elements/1.1/"
   xmlns:cc="http://creativecommons.org/ns#"
   xmlns:rdf="http://www.w3.org/1999/02/22-rdf-syntax-ns#"
   xmlns:svg="http://www.w3.org/2000/svg"
   xmlns="http://www.w3.org/2000/svg"
   xmlns:sodipodi="http://sodipodi.sourceforge.net/DTD/sodipodi-0.dtd"
   xmlns:inkscape="http://www.inkscape.org/namespaces/inkscape"
   width="24"
   height="24"
   viewBox="0 0 24 24"
   id="svg3502"
   version="1.1"
   inkscape:version="0.91 r13725"
   sodipodi:docname="iconmonstr-drop-21.svg"
   inkscape:export-filename="C:\Users\u0079068\Documents\Research\ISIMIP2b_exposure\ncfiles\pictograms\pictogram_driedarea.png"
   inkscape:export-xdpi="1800"
   inkscape:export-ydpi="1800">
  <metadata
     id="metadata3510">
    <rdf:RDF>
      <cc:Work
         rdf:about="">
        <dc:format>image/svg+xml</dc:format>
        <dc:type
           rdf:resource="http://purl.org/dc/dcmitype/StillImage" />
      </cc:Work>
    </rdf:RDF>
  </metadata>
  <defs
     id="defs3508" />
  <sodipodi:namedview
     pagecolor="#ffffff"
     bordercolor="#666666"
     borderopacity="1"
     objecttolerance="10"
     gridtolerance="10"
     guidetolerance="10"
     inkscape:pageopacity="0"
     inkscape:pageshadow="2"
     inkscape:window-width="1920"
     inkscape:window-height="1018"
     id="namedview3506"
     showgrid="false"
     inkscape:zoom="9.8333333"
     inkscape:cx="12"
     inkscape:cy="12"
     inkscape:window-x="-8"
     inkscape:window-y="-8"
     inkscape:window-maximized="1"
     inkscape:current-layer="svg3502" />
  <path
     d="M15.613 21.719c-1.443 1.409-3.424 2.281-5.613 2.281-4.421 0-8-3.547-8-7.925 0-4.376 3.13-8.878 8-16.075 2.473 3.653 4.493 6.61 5.887 9.211-.665.171-1.289.442-1.854.801-1.021-1.886-2.384-3.989-4.033-6.441-3.658 5.437-6 9.223-6 12.503 0 3.268 2.691 5.926 6 5.926 1.387 0 2.661-.471 3.678-1.254.581.424 1.231.759 1.935.973zm6.387-6.219c0 2.485-2.017 4.5-4.5 4.5s-4.5-2.015-4.5-4.5 2.017-4.5 4.5-4.5 4.5 2.015 4.5 4.5zm-2-.5h-5v1h5v-1z"
     id="path3504"
     style="fill:#4d4d4d" />
</svg>
