<?xml version="1.0" encoding="UTF-8" standalone="no"?>
<svg
   xmlns:dc="http://purl.org/dc/elements/1.1/"
   xmlns:cc="http://creativecommons.org/ns#"
   xmlns:rdf="http://www.w3.org/1999/02/22-rdf-syntax-ns#"
   xmlns:svg="http://www.w3.org/2000/svg"
   xmlns="http://www.w3.org/2000/svg"
   xmlns:sodipodi="http://sodipodi.sourceforge.net/DTD/sodipodi-0.dtd"
   xmlns:inkscape="http://www.inkscape.org/namespaces/inkscape"
   width="24"
   height="24"
   viewBox="0 0 24 24"
   id="svg3462"
   version="1.1"
   inkscape:version="0.91 r13725"
   sodipodi:docname="iconmonstr-weather-98.svg"
   inkscape:export-filename="C:\Users\u0079068\Documents\Research\ISIMIP2b_exposure\ncfiles\pictograms\pictogram_floodedarea.png"
   inkscape:export-xdpi="1800"
   inkscape:export-ydpi="1800">
  <metadata
     id="metadata3470">
    <rdf:RDF>
      <cc:Work
         rdf:about="">
        <dc:format>image/svg+xml</dc:format>
        <dc:type
           rdf:resource="http://purl.org/dc/dcmitype/StillImage" />
      </cc:Work>
    </rdf:RDF>
  </metadata>
  <defs
     id="defs3468" />
  <sodipodi:namedview
     pagecolor="#ffffff"
     bordercolor="#666666"
     borderopacity="1"
     objecttolerance="10"
     gridtolerance="10"
     guidetolerance="10"
     inkscape:pageopacity="0"
     inkscape:pageshadow="2"
     inkscape:window-width="1920"
     inkscape:window-height="1018"
     id="namedview3466"
     showgrid="false"
     inkscape:zoom="9.8333333"
     inkscape:cx="12"
     inkscape:cy="12"
     inkscape:window-x="-8"
     inkscape:window-y="-8"
     inkscape:window-maximized="1"
     inkscape:current-layer="svg3462" />
  <path
     d="M22.314 17c.215 1.257-.623 2.158-1.312 2.191v-3.191h1l-4-4-4 4h1v2.339c-2.108-1.262-3.308-3.569-3.308-6.062 0-2.464 1.246-5.464 4.279-4.473 2.052.67 3.947-.756 4.029-2.804.084-2.083-1.666-4-4.932-4-8.15 0-12.758 11.125-15.07 22h20.002c2.508 0 3.998-1.694 3.998-3.374 0-1.001-.531-1.996-1.686-2.626zm-5.703-13.766c2.406.531 1.594 3.349-.609 2.724-2.938-.833-6.193.297-8.953 4.292 1.593-6.012 6.488-7.694 9.562-7.016zm-6.468 6.219c-1.031 4.484.234 7.38 2.297 9.651-4.126-1.745-5.092-6.381-2.297-9.651zm6.859 6.547h2v2h-2v-2z"
     id="path3464"
     style="fill:#4d4d4d" />
</svg>
