<?xml version="1.0" encoding="UTF-8" standalone="no"?>
<svg
   xmlns:dc="http://purl.org/dc/elements/1.1/"
   xmlns:cc="http://creativecommons.org/ns#"
   xmlns:rdf="http://www.w3.org/1999/02/22-rdf-syntax-ns#"
   xmlns:svg="http://www.w3.org/2000/svg"
   xmlns="http://www.w3.org/2000/svg"
   xmlns:sodipodi="http://sodipodi.sourceforge.net/DTD/sodipodi-0.dtd"
   xmlns:inkscape="http://www.inkscape.org/namespaces/inkscape"
   width="24"
   height="24"
   viewBox="0 0 24 24"
   id="svg3452"
   version="1.1"
   inkscape:version="0.91 r13725"
   sodipodi:docname="iconmonstr-weather-87.svg">
  <metadata
     id="metadata3460">
    <rdf:RDF>
      <cc:Work
         rdf:about="">
        <dc:format>image/svg+xml</dc:format>
        <dc:type
           rdf:resource="http://purl.org/dc/dcmitype/StillImage" />
      </cc:Work>
    </rdf:RDF>
  </metadata>
  <defs
     id="defs3458" />
  <sodipodi:namedview
     pagecolor="#ffffff"
     bordercolor="#666666"
     borderopacity="1"
     objecttolerance="10"
     gridtolerance="10"
     guidetolerance="10"
     inkscape:pageopacity="0"
     inkscape:pageshadow="2"
     inkscape:window-width="1920"
     inkscape:window-height="1018"
     id="namedview3456"
     showgrid="false"
     inkscape:zoom="9.8333333"
     inkscape:cx="12"
     inkscape:cy="12"
     inkscape:window-x="-8"
     inkscape:window-y="-8"
     inkscape:window-maximized="1"
     inkscape:current-layer="svg3452" />
  <path
     d="M11.861 7.281c5.935 0 10.139-1.719 10.139-3.483 0-2.885-6.495-3.798-9.892-3.798-4.575 0-10.108.986-10.108 5.593 0 2.431 1.532 4.78 3.683 6.647 1.062.922 3.823 2.872 3.293 5.822-.386 2.141.064 4.596 2.123 5.938.195-3.07 2.238-5.804 4.503-8.094-1.129.281-2.514.156-2.999-.438 3.103.136 6.77-1.948 6.956-4.198-.948.708-4.08 1.146-5.749.208 3.057 0 8.356-1.917 7.866-5.042-2.488 1.876-8.3 2.126-9.815.845zm.247-5.281c1.135 0 7.163.385 7.163 1.5s-6.027 1.5-7.163 1.5c-5.305 0-1.738-1.506 1.189-1.562-2.718-.77-6.817-.04-6.812.875-1.409-.288-2.151-2.313 5.623-2.313zm2.892 21c0 .552-.447 1-1 1s-1-.448-1-1 .447-1 1-1 1 .448 1 1zm-7 0c0 .552-.447 1-1 1s-1-.448-1-1 .447-1 1-1 1 .448 1 1zm-3-1c0 .552-.447 1-1 1s-1-.448-1-1 .447-1 1-1 1 .448 1 1zm2-2c0 .552-.447 1-1 1s-1-.448-1-1 .447-1 1-1 1 .448 1 1zm10 0c0 .552-.447 1-1 1s-1-.448-1-1 .447-1 1-1 1 .448 1 1zm2 2c0 .552-.447 1-1 1s-1-.448-1-1 .447-1 1-1 1 .448 1 1z"
     id="path3454"
     style="fill:#4d4d4d"
     inkscape:export-filename="C:\Users\u0079068\Documents\Research\ISIMIP2b_exposure\ncfiles\pictograms\pictogram_tropicalcyclonedarea.png"
     inkscape:export-xdpi="1800"
     inkscape:export-ydpi="1800" />
</svg>
