<?xml version="1.0" encoding="UTF-8" standalone="no"?>
<svg
   xmlns:dc="http://purl.org/dc/elements/1.1/"
   xmlns:cc="http://creativecommons.org/ns#"
   xmlns:rdf="http://www.w3.org/1999/02/22-rdf-syntax-ns#"
   xmlns:svg="http://www.w3.org/2000/svg"
   xmlns="http://www.w3.org/2000/svg"
   xmlns:sodipodi="http://sodipodi.sourceforge.net/DTD/sodipodi-0.dtd"
   xmlns:inkscape="http://www.inkscape.org/namespaces/inkscape"
   width="24"
   height="24"
   viewBox="0 0 24 24"
   id="svg3422"
   version="1.1"
   inkscape:version="0.91 r13725"
   sodipodi:docname="iconmonstr-weather-2.svg"
   inkscape:export-filename="C:\Users\u0079068\Documents\Research\ISIMIP2b_exposure\ncfiles\pictograms\original\iconmonstr\path3424.png"
   inkscape:export-xdpi="1800"
   inkscape:export-ydpi="1800">
  <metadata
     id="metadata3430">
    <rdf:RDF>
      <cc:Work
         rdf:about="">
        <dc:format>image/svg+xml</dc:format>
        <dc:type
           rdf:resource="http://purl.org/dc/dcmitype/StillImage" />
        <dc:title></dc:title>
      </cc:Work>
    </rdf:RDF>
  </metadata>
  <defs
     id="defs3428" />
  <sodipodi:namedview
     pagecolor="#ffffff"
     bordercolor="#666666"
     borderopacity="1"
     objecttolerance="10"
     gridtolerance="10"
     guidetolerance="10"
     inkscape:pageopacity="0"
     inkscape:pageshadow="2"
     inkscape:window-width="1920"
     inkscape:window-height="1018"
     id="namedview3426"
     showgrid="false"
     inkscape:zoom="35.375"
     inkscape:cx="12"
     inkscape:cy="12"
     inkscape:window-x="-8"
     inkscape:window-y="-8"
     inkscape:window-maximized="1"
     inkscape:current-layer="svg3422" />
  <path
     d="M4.069 13h-4.069v-2h4.069c-.041.328-.069.661-.069 1s.028.672.069 1zm3.034-7.312l-2.881-2.881-1.414 1.414 2.881 2.881c.411-.529.885-1.003 1.414-1.414zm11.209 1.414l2.881-2.881-1.414-1.414-2.881 2.881c.528.411 1.002.886 1.414 1.414zm-6.312-3.102c.339 0 .672.028 1 .069v-4.069h-2v4.069c.328-.041.661-.069 1-.069zm0 16c-.339 0-.672-.028-1-.069v4.069h2v-4.069c-.328.041-.661.069-1 .069zm7.931-9c.041.328.069.661.069 1s-.028.672-.069 1h4.069v-2h-4.069zm-3.033 7.312l2.88 2.88 1.415-1.414-2.88-2.88c-.412.528-.886 1.002-1.415 1.414zm-11.21-1.415l-2.88 2.88 1.414 1.414 2.88-2.88c-.528-.411-1.003-.885-1.414-1.414zm2.312-4.897c0 2.206 1.794 4 4 4s4-1.794 4-4-1.794-4-4-4-4 1.794-4 4zm10 0c0 3.314-2.686 6-6 6s-6-2.686-6-6 2.686-6 6-6 6 2.686 6 6z"
     id="path3424"
     style="fill:#4d4d4d" />
</svg>
