<?xml version="1.0" encoding="UTF-8" standalone="no"?>
<svg
   xmlns:dc="http://purl.org/dc/elements/1.1/"
   xmlns:cc="http://creativecommons.org/ns#"
   xmlns:rdf="http://www.w3.org/1999/02/22-rdf-syntax-ns#"
   xmlns:svg="http://www.w3.org/2000/svg"
   xmlns="http://www.w3.org/2000/svg"
   xmlns:sodipodi="http://sodipodi.sourceforge.net/DTD/sodipodi-0.dtd"
   xmlns:inkscape="http://www.inkscape.org/namespaces/inkscape"
   width="24"
   height="24"
   viewBox="0 0 24 24"
   id="svg3432"
   version="1.1"
   inkscape:version="0.91 r13725"
   sodipodi:docname="iconmonstr-weather-84.svg">
  <metadata
     id="metadata3440">
    <rdf:RDF>
      <cc:Work
         rdf:about="">
        <dc:format>image/svg+xml</dc:format>
        <dc:type
           rdf:resource="http://purl.org/dc/dcmitype/StillImage" />
      </cc:Work>
    </rdf:RDF>
  </metadata>
  <defs
     id="defs3438" />
  <sodipodi:namedview
     pagecolor="#ffffff"
     bordercolor="#666666"
     borderopacity="1"
     objecttolerance="10"
     gridtolerance="10"
     guidetolerance="10"
     inkscape:pageopacity="0"
     inkscape:pageshadow="2"
     inkscape:window-width="1920"
     inkscape:window-height="1018"
     id="namedview3436"
     showgrid="false"
     inkscape:zoom="9.8333333"
     inkscape:cx="12"
     inkscape:cy="12"
     inkscape:window-x="-8"
     inkscape:window-y="-8"
     inkscape:window-maximized="1"
     inkscape:current-layer="svg3432" />
  <path
     d="M13.664 5.789c3.015-.714 7.986.497 10.336 2.568-1.74-4.282-6.446-7.357-11.993-7.357-4.904 0-9.084 3.078-9.863 7.265-.794 4.258 2.152 8.84 8.208 9.923-3.019.714-8.005-.5-10.352-2.581 1.729 4.3 6.445 7.393 12.007 7.393l.308-.003c4.828-.099 8.882-3.169 9.633-7.294.778-4.275-2.194-8.827-8.284-9.914zm1 7.643c-.759.771-2.571.755-4.042-.036-1.475-.792-2.046-2.058-1.286-2.829.759-.771 2.568-.755 4.043.037 1.469.792 2.046 2.057 1.285 2.828z"
     id="path3434"
     style="fill:#4d4d4d" />
</svg>
